/* XPM */
static char *dff2e5d1f7da419584e3d9defb3794216BO3Ji1ynYRWdhd1[] = {
/* columns rows colors chars-per-pixel */
"64 64 27 1 ",
"  c #924F2E",
". c #93502F",
"X c #96522C",
"o c #904C30",
"O c #935333",
"+ c #925532",
"@ c #BD804B",
"# c #006EB4",
"$ c #AE5C82",
"% c #B675BC",
"& c #CC79C5",
"* c #DB7ACC",
"= c #058FD8",
"- c #4FB8F9",
"; c #A49DDD",
": c #A598E6",
"> c #A598E9",
", c #AA9AEA",
"< c #AE9DE8",
"1 c #96D7FF",
"2 c #C5CFF0",
"3 c #CBD0F3",
"4 c #CCD0F5",
"5 c #F9EDF9",
"6 c #FFF9FA",
"7 c #F9FAFD",
"8 c white",
/* pixels */
"=-######--######1111####--###11#########111##---------#######11#",
"-----####------1----#####-####1############1-=======#--####111--",
"====--###-####1####--#####-####1#########--#1=====####-###11####",
"=====--=-=####1#####--####-----1--######-###11===#####---11#####",
"1=====--======1#######-----####1##----#-#####1===######-#1######",
"#111==--======1===######-######1#####---######1=#######11#######",
"####11=-======1=1======#-######1######-###1111111111##11-#######",
"#####=1111111=11=111====-=====11######-##1##########11##-#######",
"#####==1=====11=1===1===-====11#######-#1############1#--#######",
"#####=1-=======11===1===-====1########-1##############1-########",
"#####1=-========1===11111====1########-1###############1########",
"#####1=-========1#######-1111#########-11#############--1#######",
"#####1=-=======#1#######-#==11#######---1###########---11#######",
"#####11-======##1#######-###==1######-#-11#########---##11######",
"#####11=======##1#######-#####=1####-1111-1--####---####1-111111",
"###--1-======###1######--#####==1###1###1##--------#####-1-###--",
"---=-1-====####11######----###==1#11---#1#######--#######1--#--#",
"1===-1---#####11#####--###--##==11-####-1--####-#########1#--###",
"11=-=1=##-####1#####-######-##=11-#######1-----##########1=--###",
"==11111##--##11###--########--1--########11--############1==-=##",
"===-==1111111-1----######====-1-=##########1-############1==-==#",
"===-=1=####-##1########======-1-==##########1###########11=--==#",
"==-=1===###--##11####========1#===##########-111#######11=11-==1",
"==-1=====###---#11#========#1--#==##########-###1111111====11=11",
"==-1======###--#111======###1--#===#########--1#######=====-111=",
"==-1========##-1===1===######@@OOO==##########1######=====111===",
"==11==========1=====1111111@.33333OO##########1-#####====11=====",
"=-1-###======1-===########@355555553+=########1-#####====1-=====",
"--1--###====1=-=##########@445888533++=#######1#-####--=-1=----=",
"-#11--##===1=--##########X54568887542+@=######1#--------11====##",
"-##11-##===1---#########@3,444888433;3+==#####1##--##===11=#####",
"-####111111===---#######@3::4433333<:3+===##111#--##====1-1#####",
"######--=-11==###--#####@5*:>>>>>>::*>+11111##-11##====1=#-11###",
"#######--=11==####--####+5**%%,,,%%&*>+=====#---11====1=##-#1###",
"#######-==111=#####--###+>$$*%%%%%&$$>+--------===11=11##--##1##",
"######--#=1=11#####1111#+3%$$*****$$%>@#=1====-====11==###-##1##",
"######-###1===11111##-111 >%$$$$$$$%5+##=1====-=====1==###-##1##",
"######-###1#===######-##1o+>%$$$$$%5++##=1====-====1===###-##1##",
"######-###1##==######-##111+>>>>333++###=1====--==11===###-##1##",
"-#####11111##====####-###111++++++++####=1=====-==1===####-##1##",
"1-##11-##1####=====###-------##########==1=====--1====####-##11#",
"11-1##-##1####=====##--#####--########===1=======1-==#####-###11",
"=#111#-##1####======--#######-#######====1====111111111##----#1#",
"=#---1--#1####=====--#########--####====1==111===----##1-####-1#",
"=--###1--1####====--==#####111111##====1111====---##----1####-1-",
"--#####1-1-#111111111=###11####-1111111==1====--#####-##1111111#",
"--######1#-1------===1=111#####--1======1====--######-##1#####--",
"-=#######11-###--=====1#######---1-=====1----########-=#1######-",
"-=#######1#-####-======1#####=--##1-----1=--#########-==1######-",
"-=#######1#-####-=======1====--###1#####1=-##########-==1######-",
"-==######1#-#####-======1===--####1#####1-###########-==1==####-",
"-========1=-#####--=====1=---#####1#####1-###########-==1======-",
"-=======1==-#######-==--1--#######1#####1--#######-----=1======-",
"111=====1==-########--==1#########1#####11---------=-##1##=====-",
"-==111111==-########--=11#########1###1111==-----###--#1####=--=",
"-=======1==-#########-11111##########1===-1--#########-11###--==",
"-=======1==-#####----1---==1#######11----##11##########1#1--##==",
"-=======1111111111111====--=11####11-==######1#######11##1##-##=",
"-======1##--11-#######====--==111-1-====######11111111###11#-###",
"--====11#--##111########===------11=====#######1##########11#-##",
"=--==1##--####11########====-====1======########1##########1111#",
"===--1#--#######1########===--===1=====#########1#############-1",
"====1---########111######====-===1====##########11############-1",
"==111#############1#######===-===1===############1#############-"
};
