/* XPM */
static char *_1b3ebc424004462cf65f6e8eb05c386yJrEyUnSHDNxuBLH[] = {
/* columns rows colors chars-per-pixel */
"64 64 130 2 ",
"   c black",
".  c #1E1730",
"X  c #171C32",
"o  c #1B1B32",
"O  c #231728",
"+  c #211934",
"@  c #2E1C38",
"#  c #3F1B35",
"$  c #3B1D3C",
"%  c #3B213F",
"&  c #4A172C",
"*  c #501428",
"=  c #461735",
"-  c #451A35",
";  c #491A36",
":  c #42173A",
">  c #4A173A",
",  c #421A3C",
"<  c #501535",
"1  c #661F28",
"2  c #562C2E",
"3  c #562737",
"4  c #5F2737",
"5  c #552935",
"6  c #5A2936",
"7  c #54253D",
"8  c #5D263B",
"9  c #572939",
"0  c #5A283B",
"q  c #42313C",
"w  c #692527",
"e  c #69242F",
"r  c #622633",
"t  c #692432",
"y  c #612934",
"u  c #61253B",
"i  c #61283B",
"p  c #63333B",
"a  c #311C45",
"s  c #3E1B43",
"d  c #421C41",
"f  c #481C40",
"g  c #4D2A40",
"h  c #572641",
"j  c #5C2541",
"k  c #572942",
"l  c #5A2943",
"z  c #563866",
"x  c #004F78",
"c  c #0E4D7C",
"v  c #1C4C7C",
"b  c #005176",
"n  c #015179",
"m  c #0B547F",
"M  c #6F5564",
"N  c #765464",
"B  c #973D37",
"V  c #983F3B",
"C  c #A33E3B",
"Z  c #97472B",
"A  c #8D4636",
"S  c #9B4234",
"D  c #97413B",
"F  c #9B413C",
"G  c #A04036",
"H  c #BB6237",
"J  c #B5633C",
"K  c #BA623C",
"L  c #C0603F",
"P  c #9D3F41",
"I  c #A13E42",
"U  c #A93A47",
"Y  c #8F424A",
"T  c #804A4B",
"R  c #954343",
"E  c #9A4141",
"W  c #92424A",
"Q  c #9A4049",
"!  c #8A4250",
"~  c #BB5F46",
"^  c #B35E4A",
"/  c #BD5F4B",
"(  c #B56445",
")  c #BC6145",
"_  c #B6614C",
"`  c #BB614B",
"'  c #A56455",
"]  c #AC6454",
"[  c #A7635F",
"{  c #B16453",
"}  c #BA6455",
"|  c #B56059",
" . c #A26C64",
".. c #A2737A",
"X. c #C05F45",
"o. c #C25E4A",
"O. c #C06043",
"+. c #DD8B51",
"@. c #DD8B5C",
"#. c #E18B57",
"$. c #006EB8",
"%. c #9A7480",
"&. c #008D9E",
"*. c #0086AD",
"=. c #0089AC",
"-. c #0085B1",
";. c #0085B5",
":. c #008BB2",
">. c #0084B9",
",. c #009CBB",
"<. c #00A2B5",
"1. c #00A1BF",
"2. c #009FC4",
"3. c #0090DB",
"4. c #00A3C4",
"5. c #00A1CB",
"6. c #00B3CB",
"7. c #00B2D0",
"8. c #00B9FB",
"9. c #70D8FF",
"0. c #AE92C8",
"q. c #A8FDFF",
"w. c #BDFFFF",
"e. c #D2DAFB",
"r. c #C7FFFF",
"t. c #CEFFFE",
"y. c #D3FEFD",
"u. c #D9FDFE",
"i. c #F2F6FF",
"p. c white",
/* pixels */
"3.8.$.$.$.$.$.$.8.8.$.$.$.$.$.$.9.9.9.9.$.$.$.$.8.8.$.$.$.9.9.$.$.$.$.$.$.$.$.$.9.9.9.$.$.8.8.8.8.8.8.8.8.8.$.$.$.$.$.$.$.9.9.$.",
"8.8.8.8.8.$.$.$.$.8.8.8.8.8.8.9.8.8.8.8.$.$.$.$.$.8.$.$.$.$.9.$.$.$.$.$.$.$.$.$.$.$.$.9.8.3.3.3.3.3.3.3.$.8.8.$.$.$.$.9.9.9.8.8.",
"3.3.3.3.8.8.$.$.$.8.$.$.$.$.9.$.$.$.$.8.8.$.$.$.$.$.8.$.$.$.$.9.$.$.$.$.$.$.$.$.$.8.8.$.9.3.3.3.3.3.$.$.$.$.8.$.$.$.9.9.$.$.$.$.",
"3.3.3.3.3.8.8.3.8.3.$.$.$.$.9.$.$.$.$.$.8.8.$.$.$.$.8.8.8.8.8.9.8.8.$.$.$.$.$.$.8.$.$.$.9.9.3.3.3.$.$.$.$.$.8.8.8.9.9.$.$.$.$.$.",
"9.3.3.3.3.3.8.8.3.3.3.3.3.3.9.$.$.$.$.$.$.$.8.8.8.8.8.$.$.$.$.9.$.$.8.8.8.8.$.8.$.$.$.$.$.9.3.3.3.$.$.$.$.$.$.8.$.9.$.$.$.$.$.$.",
"$.9.9.9.3.3.8.8.3.3.3.3.3.3.9.3.3.3.$.$.$.$.$.$.8.$.$.$.$.$.$.9.$.$.$.$.$.8.8.8.$.$.$.$.$.$.9.3.$.$.$.$.$.$.$.9.9.$.$.$.$.$.$.$.",
"$.$.$.$.9.9.3.8.3.3.3.3.3.3.9.3.9.3.3.3.3.3.3.$.8.$.$.$.$.$.$.9.$.$.$.$.$.$.8.$.$.$.9.9.9.9.9.9.9.9.9.9.$.$.9.9.8.$.$.$.$.$.$.$.",
"$.$.$.$.$.3.9.9.9.9.9.9.9.3.9.9.3.9.9.9.3.3.3.3.8.3.3.3.3.3.9.9.$.$.$.$.$.$.8.$.$.9.$.$.$.$.$.$.$.$.$.$.9.9.$.$.8.$.$.$.$.$.$.$.",
"$.$.$.$.$.3.3.9.3.3.3.3.3.9.9.3.9.3.3.3.9.3.3.3.8.3.3.3.3.9.9.$.$.$.$.$.$.$.8.$.9.$.$.$.$.$.$.$.$.$.$.$.$.9.$.8.8.$.$.$.$.$.$.$.",
"$.$.$.$.$.3.9.8.3.3.3.3.3.3.3.9.9.3.3.3.9.3.3.3.8.3.3.3.3.9.$.$.$.$.$.$.$.$.8.9.$.$.$.$.$.$.$.$.$.$.$.$.$.$.9.8.$.$.$.$.$.$.$.$.",
"$.$.$.$.$.9.3.8.3.3.3.3.3.3.3.3.9.3.3.3.9.9.9.9.9.3.3.3.3.9.$.$.$.p.p.p.$.$.8.9.$.$.$.$.$.$.$.p.p.p.$.$.$.$.$.9.$.$.$.$.$.$.$.$.",
"$.$.$.$.$.9.3.8.3.3.3.3.3.3.3.3.9.$.$.$.$.$.$.$.8.9.9.9.9.$.$.$.$.p.p.p.p.$.8.9.9.$.$.$.$.$.p.p.p.p.$.$.$.$.8.8.9.$.$.$.$.$.$.$.",
"$.$.$.$.$.9.3.8.3.3.3.3.3.3.3.$.9.$.$.$.$.$.$.$.8.$.3.3.9.9.$.$.$.p.p.p.p.8.8.8.9.$.$.$.$.$.p.p.p.p.$.$.8.8.8.9.9.$.$.$.$.$.$.$.",
"$.$.$.$.$.9.9.8.3.3.3.3.3.3.$.$.9.$.$.$.$.$.$.$.8.$.$.$.3.3.9.$.$.$.p.p.p.p.$.8.9.9.$.$.$.p.p.p.p.$.$.8.8.8.$.$.9.9.$.$.$.$.$.$.",
"$.$.$.$.$.9.9.3.3.3.3.3.3.3.$.$.9.$.$.$.$.$.$.$.8.$.$.$.$.$.3.9.$.$.p.p.p.p.9.9.9.8.9.8.8.p.p.p.p.8.8.8.$.$.$.$.9.8.9.9.9.9.9.9.",
"$.$.$.8.8.9.8.3.3.3.3.3.3.$.$.$.9.$.$.$.$.$.$.8.8.$.$.$.$.$.3.3.9.$.$.p.p.p.$.$.9.$.$.8.8.p.p.p.8.8.8.$.$.$.$.$.8.9.8.$.$.$.8.8.",
"8.8.8.3.8.9.8.3.3.3.3.$.$.$.$.9.9.$.$.$.$.$.$.8.8.8.8.$.$.$.3.3.9.$.9.p.p.e.8.$.9.$.$.$.$.e.p.p.8.8.$.$.$.$.$.$.$.9.8.8.$.8.8.$.",
"9.3.3.3.8.9.8.8.8.$.$.$.$.$.9.9.$.$.$.$.$.8.8.$.$.$.8.8.$.$.3.3.9.9.8.$.e.e.$.8.9.8.8.$.$.e.e.8.$.$.$.$.$.$.$.$.$.9.$.8.8.$.$.$.",
"9.9.3.8.3.9.3.$.$.8.$.$.$.$.9.$.$.$.$.$.8.$.$.$.$.$.$.8.$.$.3.9.9.8.$.$.0.e.p.p.p.p.p.p.p.e.0.$.$.$.$.$.$.$.$.$.$.9.3.8.8.$.$.$.",
"3.3.9.9.9.9.9.$.$.8.8.$.$.9.9.$.$.$.8.8.$.$.$.$.$.$.$.$.8.8.9.8.8.$.$.p.p.p.p.p.p.p.p.p.p.p.p.p.$.$.$.$.$.$.$.$.$.9.3.3.8.3.$.$.",
"3.3.3.8.3.3.9.9.9.9.9.9.9.8.9.8.8.8.8.$.$.$.$.$.$.3.3.3.3.8.9.8.3.$.p.p.p.p.p.p.p.p.p.p.p.p.p.p.p.$.$.$.$.$.$.$.$.9.3.3.8.3.3.$.",
"3.3.3.8.3.9.3.$.$.$.$.8.$.$.9.$.$.$.$.$.$.$.$.3.3.3.3.3.3.8.9.8.3.3.p.p.p.p.p.p.p.p.p.p.p.p.p.p.p.$.$.$.$.$.$.$.9.9.3.8.8.3.3.$.",
"3.3.8.3.9.3.3.3.$.$.$.8.8.$.$.9.9.$.$.$.$.3.3.3.3.3.3.3.3.9.$.3.3.p.p.p.p.p.p.p.p.p.p.p.p.p.p.p.p.p.$.$.$.$.$.9.9.3.9.9.8.3.3.9.",
"3.3.8.9.3.3.3.3.3.$.$.$.8.8.8.$.9.9.$.3.3.3.3.3.3.3.3.$.9.8.8.$.=.p.p.p.p.p.p.p.p.p.p.p.p.p.p.p.p.p.9.9.9.9.9.3.3.3.3.9.9.3.9.9.",
"3.3.8.9.3.3.3.3.3.3.$.$.$.8.8.$.9.9.9.3.3.3.3.3.3.$.$.$.9.-.-.&.E p.p.p.  p.p.p.p.p.p.p.p.p.  p.p.p.$.$.$.$.3.3.3.3.3.8.9.9.9.3.",
"3.3.8.9.3.3.3.3.3.3.3.3.$.$.8.9.3.3.3.9.3.3.3.$.$.$.$.=.$.=.E P 0 p.p.p.  p.p.p.p.  p.p.p.p.  p.p.p.$.$.$.3.3.3.3.3.9.9.9.3.3.3.",
"3.3.9.9.3.3.3.3.3.3.3.3.3.3.9.3.3.3.3.3.9.9.9.9.9.9.9.D D F 0 y ;.p.p.p.p.p.p.p.p.  p.p.p.p.p.p.p.p.$.$.$.3.3.3.3.9.9.3.3.3.3.3.",
"3.8.9.8.$.$.$.3.3.3.3.3.3.9.8.:.` ` / / / / / / / ) ) H ) ) ) ( ) e.p.p.p.p.p.p.  p.  p.p.p.p.p.p.e.*.$.$.3.3.3.3.9.8.3.3.3.3.3.",
"8.8.9.8.8.$.$.$.3.3.;.X.o.o.o.J ) ) w 8 8 y r r y y r y r r r r r r e.p.p.p.p.p.p.p.p.p.p.p.p.p.e.) _ ) $.8.*.3.8.9.3.8.8.8.8.3.",
"8.$.9.9.8.8.$.$.3.) K ) ) ) { 9 j j = , , , , , , , , , , , , , , , , e.e.p.p.p.p.p.p.p.p.p.e.e.0 0 X.) ) ) o.8.;.*.3.3.3.3.$.$.",
"=.| L 9.9.8.O.O._ ) H i u u i , , , l 8 8 , 8 8 8 , 4 8 8 , 8 8 6 , 8 8 z 0.e.e.e.e.e.e.e.0.z , , , u 6 9 ) ( X./ 9.3.$.$.$.$.$.",
"8.D E ) ) ) ) ) ) o.i , , , , 8 8 ; l 8 8 , 8 8 8 , 9 u u ; 9 8 0 , 8 e.e.e.p.p.p.p.p.p.p.e.e.e., 7 s - = j ) ) ) 8.9.$.$.$.$.$.",
"$.D E E ) ) ) ) ) 8 ; 8 8 8 Q W y ; l 8 8 , 8 8 8 s D D E D D 8 0 , p.p.e.z p.p.p.p.p.p.p.z e.p.p.P E y y u ) ) ) $.8.9.9.$.$.$.",
">.W P E ) ) ) ) ) 9 0 F F ) +.@.Y ; l 8 8 , 8 8 8 F +.+.) +.+.E 0 p.p.p.z e.p.p.p.p.p.p.p.e.z p.p.p.) Z S D ) ) ) $.8.$.9.$.$.$.",
"$.$.F E R ) ) ) O.0 E +.+.) +.#.] ; l 8 8 , 9 9 8 ( +.+.) +.+.o.8 p.p.p.z p.p.p.p.p.p.p.p.p.z p.p.p.) +.+.D ) ) ) 8.8.$.$.9.$.$.",
"$.$.F 0 F E ) ) ) ) E +.+.) +.#.} = 7 9 O o o o o ) +.+.) +.+.) o p.p.z e.p.p.p.p.p.p.p.p.p.e.z p.p.) +.+.D ) ) ) $.8.$.$.9.$.$.",
"$.$.;.F u E E ) ) ) E +.+.) +.#.' X X X % , , , , ) +.+.) +.+.X., , , , p.p.p.p.p.p.p.p.p.p.p.o.+.+.) +.+.D ) ) ) $.8.$.$.9.$.$.",
"$.$.$.C E u D D E ) ) +.+.) +.#.] , , , , , , , , ) +.+.) +.+.) $ @ # # p.p.p.p.p.p.p.p.p.p.p._ +.+.) +.+.D ) ) ) $.8.$.$.9.$.$.",
"$.$.$.>.E E 9 8 E E ) ) ) ) +.#.] o o o o o X X o ) +.+.) +.+.) + + ..%.z p.p.p.e.$ e.p.p.p.z / +.+.` +.) ) ) ) ` $.8.$.$.9.$.$.",
"8.$.$.$.$.D V E l V E E ) ) ) +.{ , , , , , , , , ) +.+.) +.+.X., Y 1 0 M , p.p.p., p.p.p., $ / +.) ) ) ) ) ) D D *.8.$.$.9.$.$.",
"9.8.$.$.9.9 0 E F 0 E R E E ) ` ] d d d & & * a $ ) +.+.) +.+.) ! t 6 N o . . . . $ [ ) ) ) ) o.) ) ) ) ) E E 0 0 $.8.$.$.9.9.$.",
"9.9.8.9.$.> , 9 I R r y W Q R B _ _ _ _ _ / (  .] ) J H ) H K F t p ^ M ) ) _ _ _ / ~ ) ) ) ) ) ) ) l 0 8 8 h F 0 $.8.$.$.$.9.9.",
"3.$.9.9.9.4.0 ; 0 8 W E e e i Y Y Y Y e e t S S F F F F F F F r 0 E 8 r 8 P E E E E r 6 6 6 6 6 u y E F F F F 9 5.8.8.8.8.$.9.$.",
"3.$.8.8.8.2.9 q ; = k Y Y Y r Y Y Y Y Y Y Y r r r r r r r E y 8 E y 8 8 8 0 0 0 0 0 Y F F F F F F F 0 k k k 8 < u.$.$.$.$.8.9.$.",
"3.8.8.$.$.$.4.w.q 8 = = = = r r r r y y y u R R R E E E E y y P 9 8 6 F F F F E E E t 0 0 0 9 9 0 9 ; , , , , y.4.=.$.$.$.8.9.8.",
"8.8.$.$.$.$.$.:.<.i.6 l l l = = = = = = , f 9 9 3 3 5 E l 8 0 d , ; 0 7 6 6 6 6 6 6 : , , , , , , , 4 8 8 t.u.x -.9.9.9.9.9.9.$.",
"8.8.$.$.$.$.$.$.n 4.5.u.0 8 u 8 8 8 8 8 8 8 , , , , R 8 8 8 , , , , , , , , , , , , h 8 8 u 8 u u u u t.u.5.b $.9.$.$.$.$.$.8.8.",
"8.3.$.$.$.$.$.$.*.n v <.t.t.t.u 8 u u 8 8 8 8 u u G 8 8 8 , , s 9 u 8 8 8 8 8 8 8 u u 8 8 u r.t.t.t.r.4.v b 3.$.9.$.$.$.$.$.$.8.",
"8.3.$.$.$.$.$.$.$.-.=.m b 2.4.4.4.4.q.y.y.y.t.w.R 0 9 t.y.y.y.4.4.4.t.y.y.t.t.t.t.t.t.4.4.4.4.4.4.4.b b $.8.3.3.9.$.$.$.$.$.$.8.",
"8.3.$.$.$.$.$.$.$.9.:.8.$.b b b b b ,.4.4.4.2.Z 7 8 4.4.4.4.4.4.4.1.4.4.4.4.4.4.4.4.4.4.2.x b b b b -.$.$.8.3.3.9.$.$.$.$.$.$.8.",
"8.3.3.$.$.$.$.$.$.9.$.8.$.-.-.-.-.-.n b b v Q 2 8 c b b x b b x b b x n b b n b b n n b n $.$.$.$.$.$.$.$.8.3.3.9.3.3.$.$.$.$.8.",
"8.3.3.3.3.3.3.3.3.9.3.8.$.$.$.$.$.8.8.3.3.P 8 u -.=.-.-.-.-.-.$.$.$.9.$.$.$.$.$.9.8.$.$.$.$.$.$.$.$.$.$.$.8.3.3.9.3.3.3.3.3.3.8.",
"8.3.3.3.3.3.3.3.9.3.3.8.$.$.$.$.$.$.$.8.U 0 9 ;.-.8.8.$.$.$.$.$.$.$.9.$.$.$.$.$.9.8.8.$.$.$.$.$.$.$.8.8.8.8.8.3.9.3.3.3.3.3.3.8.",
"9.9.9.3.3.3.3.3.9.3.3.8.$.$.$.$.$.7.6.A y u =.3.9.$.$.$.$.$.$.$.$.$.9.$.$.$.$.$.9.9.8.8.8.8.8.8.8.8.8.3.8.$.$.9.$.$.3.3.3.3.3.8.",
"8.3.3.9.9.9.9.9.9.3.3.8.$.$.$.$.$.r.T r u 8.3.9.9.$.$.$.$.$.$.$.$.$.9.$.$.$.9.9.9.9.3.3.8.8.8.8.8.$.$.$.8.8.$.9.$.$.$.$.3.8.8.3.",
"8.3.3.3.3.3.3.3.9.3.3.8.$.$.$.$.$.w.g u r.8.9.9.9.9.9.$.$.$.$.$.$.$.$.$.$.9.3.3.3.8.9.8.8.$.$.$.$.$.$.$.$.$.8.9.9.$.$.$.8.8.3.3.",
"8.3.3.3.3.3.3.3.9.3.3.8.$.$.$.$.$.8.8.8.8.9.8.8.8.3.3.9.$.$.$.$.$.$.$.9.9.8.8.8.8.$.$.9.9.$.$.$.$.$.$.$.$.$.$.9.$.9.8.8.$.$.3.3.",
"8.3.3.3.3.3.3.3.9.9.9.9.9.9.9.9.9.9.9.9.9.3.3.3.3.8.8.3.9.9.$.$.$.$.9.9.8.3.3.$.$.$.$.$.$.9.$.$.$.$.$.$.$.9.9.$.$.9.$.$.8.$.$.3.",
"8.3.3.3.3.3.3.9.$.$.8.8.9.9.8.$.$.$.$.$.$.$.3.3.3.3.8.8.3.3.9.9.9.8.9.8.3.3.3.3.$.$.$.$.$.$.9.9.9.9.9.9.9.9.$.$.$.9.9.$.8.$.$.$.",
"8.8.3.3.3.3.9.9.$.8.8.$.$.9.9.9.$.$.$.$.$.$.$.$.3.3.3.8.8.8.8.8.8.9.9.3.3.3.3.3.$.$.$.$.$.$.$.9.$.$.$.$.$.$.$.$.$.$.9.9.$.8.$.$.",
"3.8.8.3.3.9.$.$.8.8.$.$.$.$.9.9.$.$.$.$.$.$.$.$.3.3.3.3.8.3.3.3.3.9.3.3.3.3.3.3.$.$.$.$.$.$.$.$.9.$.$.$.$.$.$.$.$.$.$.9.9.9.9.$.",
"3.3.3.8.8.9.$.8.8.$.$.$.$.$.$.$.9.$.$.$.$.$.$.$.$.3.3.3.8.8.3.3.3.9.3.3.3.3.3.$.$.$.$.$.$.$.$.$.9.$.$.$.$.$.$.$.$.$.$.$.$.$.8.9.",
"3.3.3.3.9.8.8.8.$.$.$.$.$.$.$.$.9.9.9.$.$.$.$.$.$.3.3.3.3.8.3.3.3.9.3.3.3.3.$.$.$.$.$.$.$.$.$.$.9.9.$.$.$.$.$.$.$.$.$.$.$.$.8.9.",
"3.3.9.9.9.$.$.$.$.$.$.$.$.$.$.$.$.$.9.$.$.$.$.$.$.$.3.3.3.8.3.3.3.9.3.3.3.$.$.$.$.$.$.$.$.$.$.$.$.9.$.$.$.$.$.$.$.$.$.$.$.$.$.8."
};
