/* XPM */
static char *_9188ff5f8464c1cea5ef48656149192djKaGzjMSynsgakx[] = {
/* columns rows colors chars-per-pixel */
"64 64 70 1 ",
"  c #002E24",
". c #003326",
"X c #003527",
"o c #003729",
"O c #003A2D",
"+ c #003F31",
"@ c #004232",
"# c #004535",
"$ c #004939",
"% c #004D38",
"& c #004D50",
"* c #005353",
"= c #005653",
"- c #005354",
"; c #005A56",
": c #005E56",
"> c #005459",
", c #00585A",
"< c #005D5A",
"1 c #005F5B",
"2 c #006B52",
"3 c #006C53",
"4 c #006A55",
"5 c #006E55",
"6 c #00605F",
"7 c #00685F",
"8 c #007056",
"9 c #007554",
"0 c #007954",
"q c #007358",
"w c #007459",
"e c #00755D",
"r c #00785B",
"t c #00785C",
"y c #007C5C",
"u c #005F60",
"i c #006161",
"p c #006761",
"a c #006A63",
"s c #006E62",
"d c #006B64",
"f c #007B60",
"g c #008756",
"h c #008957",
"j c #008758",
"k c #008958",
"l c #008C59",
"z c #008D5C",
"x c #00876E",
"c c #00886E",
"v c #008C6F",
"b c #009B6A",
"n c #009F6B",
"m c #009D6C",
"M c #008970",
"N c #008D70",
"B c #008B75",
"V c #008E74",
"C c #009073",
"Z c #009277",
"A c #009475",
"S c #00A26B",
"D c #00A46B",
"F c #00A16C",
"G c #00A66F",
"H c #00A96B",
"J c #00A96E",
"K c #00AC6F",
"L c #00A570",
"P c #00AB70",
/* pixels */
"VNwv5qqqqquuudJJDlKJGLBNx6wqqqqrKS&&&&=JDJGVN5wJJJJJGGSqqqqqtZMM",
"q2.@tqqqqe&&&=JJDkJJJm&;CGF8qqqwKJn&**;JJJGVN5wKJJJS&:JF8qqqqtMM",
"2 +ZN5qqqrS&&&sJJSlPJS*JJJJF5qqwKJJGGGSkzZZN8qwKDlPJGGJJF888qeMM",
".OfZN5qqqwKn>>sJGhlPJJGJJJJS5qqwPJJJGkzJGVVN5qtHkJJJJJJGGn@$q8qq",
"wGGVN8qqqwKS>>aJGglPJJJJGJn*5qqeADGJJJJGVNqwqwGhlJJGGJnpsJF2#$qq",
"G=JVN8qqqwKJS>p<GgkJJGJSu***qqqwN&=JGGGVVNqwwwkkJJSp**pppJJJF8qq",
"Gb=VV8qqqwKJG>paGgkJG>,>u>>qqqqqrM&**;VNqtJGGDhlJD&*pp&=JJJJJS55",
"&=VVN8qqqwKJJGS,GhlJG>>>u>>qqqqqwN&&-ZCwwJS*JGkGGJDDSp*pJJJJJJFF",
"&*VZqqqq8wJJJJJDGkJJG>>>uqqqqqqqwVNNNCJGGS&*JGj&=JJJJDGGJJJJJJFF",
"&*VC8qq5oe,JGJJJGkJJGppppqqqqqqqqwCVCJGkF&&*JJS&&*=JJJJJJJDhlJgg",
"*VVN8q8#q>>,<JJJJkJJD&*qqqqqq5&qqqqwJGkGp&&*JJJS&&*JJJJJGkklJkjj",
"NVZqqq5#q>>>,JJJGkJJn&qqqqqqqp=qq8#qwlGup&&*JJJG&&&;JJkk0klJGkGG",
"VVN8q5oqq>>>>,JGkkJG=8qq888qw>GS8q8#wJSupp&*JJJG&&*JJGn&7JJJklGG",
"VNqq5oqq>>>>>,JkklGqwwqq888wJS,sqq8#wGpppupiJJJG&uiJS&**GJJJkJGG",
"Nqq5oqq>>>>>>JGkkGC8wwwqqwwJJJGGG8q8#w&&p&&upJJjuuiG&&&*JJJGkJGD",
"wq5o8qu>>>>&&JCD8wwqww8u6GGGGGGJJqqq8qq&p&&&&JJhuu&*&&&&JJJkJJu&",
"q8o8qpuuu&&&&JGqqqqqqqu&&*ii**<JJGwqqqqqpuu&&JJh&&&&&&&&JJGkJD&&",
"qq8q>p>&&u&&*JGqqwwqq&&&&&&u&*JJJJGwqqqq&puuuJJh&&&&&&&&JJkJG&&&",
"qqqpppp&&uu&GGwwwJFq&&&&&&&&uJJJJJJFwqqqqppuuJJk&&&&&&&*JJkJi>&&",
">>>u>>ppppppwwGGGJi&&&&&&>>>,JJGJJJ*Vqqqqq&puJJk*&&&&&&GJkkGu>>&",
">>>u>p>&&&wwGGJJJJ&&&&&>>>>,GJGpJJG&Vwq8qqq&pJJJG&&&&&&JJJJiu>>&",
">>u>p>>>&*GGJkkJJJ&&&>>>>>>DJD*GJJ*&VVq#qqqqqGJJJ&&&&&*JJJGpu>>p",
">>up>>>,>GJJkkkkJJ&>>>>>>>GJJiuJJJ&NVVq@qqqqqwGJJpppppGJJJ,pp>pp",
">>qqq,>GGJJJkJJkJJa>>>>>>&JJJu<JJ,>NVwq#qqqqqqwGJJ&&&&JJJ,>uppp>",
">>qwXGGJJJJkJJJkkJJp>>>&JJJJ*puJ,>NVV8#8qqqqqqqwGJJ&&>JJ,>ppp>>>",
">,VGGJJJJJkkJJJJkJJ>ppppJJJJ&ppGpNVVw#8qwwqqqqqqwGJ&&>GJ>pp>>>>>",
">GJJJJJGGJkGJJGJkJJ=&&&&JJJJJJu*>VZwq8qqGGJ8qqqqqqJ&&>,,>pu>>>>>",
"GJJJJGJwqkGJJJiGkJJJ*&&&&JJJJJJ&MVVwqqq*JJJ&8qqqqqGJ&uu>up>qqqu>",
"JGJJJCwqqGJJJwu&SJJJ*&&&&JJJJJJCVVwqqq>>JJJ&&qqqqqqGuuuupMNwqq&&",
"J*SJaNqqqGJJJwu&&SJJ=&&&&pJJJJCNVwqqN>>>>JJ&&&qqqqqDJJ>qNCwqqq&&",
"i&wwqqqwDJJJ%@quu&GJJ*&&&p&JCZVNwqqN&>>>>JJ&ppqq8qq8JCNVwq58qq&&",
"&q@@@qqZJJJJw@q&&uFJJ*&&p&&MVVwwwwNppppppJJJ&&uq#5q8CVVeq$##8*&&",
"qqqqqqVVGJJJwqqq&&uGJ*&&p&MVVwwqGGGs&&&>>JJJ&uuq#@58wwwqw558p&&&",
"qqqqVVquFGJJrqqq&&&GJ=&&pcVVeqGGJJJJpuuuuuJJJuu>8q$@8qq8ZiJG&JJJ",
"qqqVV&uu*>GJJwqqq&&DJJa&qwwwZFJJJJJJJ=&&>pJJJJu>qq88qqq8NVGJJJJJ",
"qqq&&&u&&&SJJwqqqqpSJJpwqqqZVZ&SJJJJJ;&&>pJJJkJ>JwqqqqqqqNVGJJ&&",
"&&&&&&u&&&pSJwqqqqqnJJwqqqqVV&&pSGJJJJ=&>p>JJkJJJwqqqGtq58NVGp&&",
"&&&&&&JJ&&pSJtqqqqqqGJwq@qVVVpJu*&JJJJ=&>p>JJkJJJw8qqGJy#2qN*p&&",
"u&&&&&JJpppnJJwqwqwqSJw@qVVVpuJ&&&JJnJ=&>p>JJkkJJrO2qGJJyO2w*p&&",
"pu&&pJJJ&p&&nJJqqqqqww@qqVVuuJJ&&JJJ**&>>p>>JJkJJwq#3GJ&&4qq*pp&",
"ppupJJJJ&p&&*JJJqqqqqq@qVVV&JJJ&&JJJ&&>>>p>>JJkkkkt#F&&&&&u&&&pp",
">&pJJJJ&&p&&&JJJJqqqqq@qVV&&JJJ&JJJ&&>>>>p>>JJJkkJr8ppp&&uuuu&p&",
">&uJJJJu&p&&&JJJJ>>qqqqqqV&JJJuJJJ&&>>>>p>>pJJJJJJqqi&&pu&&&&up&",
">uJkkJJuup&&&&kJJ>uuqqqqqV&JJJJJJ&&>>>>pppp>JJJJqq&&uuuup&&&&upu",
"uuJkJJ&pupu&ppkJJppppqqqqqJJJJJJJpppppp>>pqJJqqqJJ&&&u&&pppqqqqq",
"uJJkJJ&&p&upuukJJu>>>pqqqqqJJJJJup>>>>>>pqqqqqqJJ&&&&u&&p&qqqqqq",
"JJkJJJ&&&ppu&&kJJ>>>>>qqqqqqJJJuupu>>>>>qqqqqqqJJ&&&&u>&pqq.qqqq",
"JJkJJJ&&&p&u&&kJJ>>>>>>qqqqqqJJJJJJJJuuqqqqqqqJVJ&&&&u>>qq.qqqqq",
"JkJJJJ&&&pJu&&kJJ>>>>>>>q@qqqJJJJJJqqqqqqqqVJkkJJ&&&&u>qq.qqqVVV",
"JkJJJJ&&&JJu&&JJJJ>>>>>>Jq@qqq&&JJqqqqqqqqqJkkkJ&&&&&uqq.qqqVVVV",
"kkJJJ>>JJJJu&&JJJJu>>>>JJq@qqqJJ&qqqqqqqquJJkkJJ&&&&&qq.qqqVVVVV",
"kJJkk9kkJJ>u&&JJJJ&u>>uJkqq@qqq&&qqqqqqqpJJJkJJJJ&uuuq@qqqqVVVJJ",
"kJkkkJJJJJJu&&JJJJ&&uuJkJJqqqqq&qqqqqqq&pJJJkJJJJuu>uq@qqqVVV>JJ",
"JkkJJJJJJJJu&&&JJJ&&uJkJJVVVqqqqqqqqq&pppJJJkJJJJJJ&q.qqqqVV>uJJ",
"JJJJJJJJJJJJJ&&kJJ&&JJJJVVVVVqqqqqqqqp>>>JJJkJJJJJJJqqqqqqVVuuJJ",
"JJJJJJ>>pJJJJJJkJJuJJqqVV>>pVqqqqqqppuuuuJJkkJ&JJJJJqqqqqVVV&&JJ",
"JJJJJJ>>ppppJJkkJJJJqqVV>uu>Vqqqqqqpu>>&&JJkkJ&&&JJJqqqqqVV&JJJJ",
"qJJJJ>>p&&uJJJkkqqqqVVVJJJJu>Vqqqqpu>>JJJJJkkJpppJJJqqqqqVVJuJqq",
"@@qJJ>pJJJJJJkkJqqqqVVJJJJJJJVqqqqpJJJJJJJJkkJJp&&JJqqqqqVVJJqqq",
"qq@@JJJJJJJJJkJqqqVVVJJkkJJJJJqqqqJJJJJJJJJkkJJp&&JJqqqqqVVq..qq",
"qqqqqJJJJJJJkJJqqqVVVkkJJJJJJJqqqqJJJJJ>JJJkJJJ&p&&JqqqqqVV..qqq",
"qqqqqqJJu&JJJJJqqVVJJJJ&&>>JJJqqqqqJJV>&JJJJkJJJp&&&qqqqqq..qqVV",
"qqqqqqqJJJJJJJJqqVVJJJJ&&>>>JJqqqqqq>VVVJJJJkJJJpp&&qqqqqqVqVVJJ",
"qqqqqqqqJJJJJJqqqVVJJJ&&&&>>>uqqqqqqq&&JJJJJJJJJJp&&&&&&qqVVqJJJ"
};
